<svg xmlns="http://www.w3.org/2000/svg" viewBox="0 0 32 32">
  <!-- Background circle -->
  <circle cx="16" cy="16" r="14" fill="#807868" opacity="0.2"/>

  <!-- Main road (bottom) -->
  <path d="M14 28 L14 18 Q14 16, 16 16 Q18 16, 18 18 L18 28" fill="none" stroke="#2a2622" stroke-width="2.5"/>

  <!-- Left fork -->
  <path d="M16 16 Q12 14, 8 10 L6 8" fill="none" stroke="#2a2622" stroke-width="2.5" stroke-linecap="round"/>

  <!-- Right fork -->
  <path d="M16 16 Q20 14, 24 10 L26 8" fill="none" stroke="#2a2622" stroke-width="2.5" stroke-linecap="round"/>

  <!-- Road edges (left fork) -->
  <path d="M16 16 Q11.5 13.8, 7.5 9.8 L5.5 7.8" fill="none" stroke="#807868" stroke-width="1" opacity="0.6"/>
  <path d="M16 16 Q12.5 14.2, 8.5 10.2 L6.5 8.2" fill="none" stroke="#807868" stroke-width="1" opacity="0.6"/>

  <!-- Road edges (right fork) -->
  <path d="M16 16 Q20.5 13.8, 24.5 9.8 L26.5 7.8" fill="none" stroke="#807868" stroke-width="1" opacity="0.6"/>
  <path d="M16 16 Q19.5 14.2, 23.5 10.2 L25.5 8.2" fill="none" stroke="#807868" stroke-width="1" opacity="0.6"/>

  <!-- Road edges (main road) -->
  <path d="M12.5 28 L12.5 18" fill="none" stroke="#807868" stroke-width="1" opacity="0.6"/>
  <path d="M19.5 28 L19.5 18" fill="none" stroke="#807868" stroke-width="1" opacity="0.6"/>

  <!-- Center junction point -->
  <circle cx="16" cy="16" r="1.5" fill="#c9a66b"/>

  <!-- Victorian lamp posts at fork ends -->
  <circle cx="6" cy="8" r="1" fill="#c9a66b" opacity="0.7"/>
  <circle cx="26" cy="8" r="1" fill="#c9a66b" opacity="0.7"/>

  <!-- Lamp light glow -->
  <circle cx="6" cy="8" r="2" fill="#c9a66b" opacity="0.2"/>
  <circle cx="26" cy="8" r="2" fill="#c9a66b" opacity="0.2"/>
</svg>
