<svg xmlns="http://www.w3.org/2000/svg" viewBox="0 0 32 32">
  <!-- Open book -->
  <path d="M16 8 C10 8, 6 10, 4 12 L4 24 C6 22, 10 20, 16 20 C22 20, 26 22, 28 24 L28 12 C26 10, 22 8, 16 8 Z" fill="#807868"/>

  <!-- Book pages -->
  <path d="M16 8 L16 20 M4 12 L4 24 M28 12 L28 24" stroke="#2a2622" stroke-width="0.5" fill="none"/>

  <!-- Page lines (left) -->
  <line x1="7" y1="14" x2="14" y2="14" stroke="#2a2622" stroke-width="0.3" opacity="0.6"/>
  <line x1="7" y1="16" x2="14" y2="16" stroke="#2a2622" stroke-width="0.3" opacity="0.6"/>
  <line x1="7" y1="18" x2="14" y2="18" stroke="#2a2622" stroke-width="0.3" opacity="0.6"/>

  <!-- Page lines (right) -->
  <line x1="18" y1="14" x2="25" y2="14" stroke="#2a2622" stroke-width="0.3" opacity="0.6"/>
  <line x1="18" y1="16" x2="25" y2="16" stroke="#2a2622" stroke-width="0.3" opacity="0.6"/>
  <line x1="18" y1="18" x2="25" y2="18" stroke="#2a2622" stroke-width="0.3" opacity="0.6"/>

  <!-- Quill pen -->
  <path d="M24 6 L20 14 L21 14 L25 6 Z" fill="#c9a66b"/>
  <line x1="20" y1="14" x2="19" y2="17" stroke="#2a2622" stroke-width="0.4"/>
</svg>
